<svg width="36" height="24" viewBox="0 0 36 24" fill="none" xmlns="http://www.w3.org/2000/svg" xmlns:xlink="http://www.w3.org/1999/xlink">
<path d="M23.586,1.586C24.367,0.805 25.633,0.805 26.414,1.586L35.414,10.586C36.195,11.367 36.195,12.633 35.414,13.414L26.414,22.414C25.633,23.195 24.367,23.195 23.586,22.414C22.805,21.633 22.805,20.367 23.586,19.586L29.172,14L2,14C0.895,14 0,13.105 0,12C0,10.895 0.895,10 2,10L29.172,10L23.586,4.414C22.805,3.633 22.805,2.367 23.586,1.586Z" clip-rule="evenodd" fill-rule="evenodd" transform="rotate(0 18 12)" fill="#424551"/>
</svg>
